<?xml version="1.0" standalone="no"?>
<!DOCTYPE svg PUBLIC "-//W3C//DTD SVG 20010904//EN"
 "http://www.w3.org/TR/2001/REC-SVG-20010904/DTD/svg10.dtd">
<svg version="1.0" xmlns="http://www.w3.org/2000/svg"
 width="260.000000pt" height="260.000000pt" viewBox="0 0 260.000000 260.000000"
 preserveAspectRatio="xMidYMid meet">
<metadata>
Created by potrace 1.14, written by Peter Selinger 2001-2017
</metadata>
<g transform="translate(0.000000,260.000000) scale(0.100000,-0.100000)"
fill="#000000" stroke="none">
<path d="M623 2327 c-67 -45 -243 -195 -243 -207 0 -4 208 -215 462 -469 l462
-462 458 458 c252 252 458 463 458 469 0 16 -168 160 -247 213 l-66 43 -301
-301 -302 -301 -299 300 c-165 164 -304 299 -310 299 -5 0 -38 -19 -72 -42z"/>
<path d="M237 1923 c-55 -93 -100 -202 -135 -332 -24 -88 -26 -113 -26 -291 0
-179 2 -203 26 -292 125 -462 445 -781 907 -906 88 -23 113 -26 291 -26 178 0
203 3 291 26 481 130 809 473 920 963 9 40 14 122 13 245 -1 165 -4 195 -26
281 -34 127 -79 236 -136 331 l-46 79 -506 -506 -506 -506 -504 505 c-278 278
-507 506 -511 506 -3 0 -26 -35 -52 -77z"/>
</g>
</svg>
